<?xml version="1.0" standalone="no"?>
<!DOCTYPE svg PUBLIC "-//W3C//DTD SVG 20010904//EN"
 "http://www.w3.org/TR/2001/REC-SVG-20010904/DTD/svg10.dtd">
<svg version="1.0" xmlns="http://www.w3.org/2000/svg"
 width="300.000000pt" height="226.000000pt" viewBox="0 0 300.000000 226.000000"
 preserveAspectRatio="xMidYMid meet">
<metadata>
Created by potrace 1.10, written by Peter Selinger 2001-2011
</metadata>
<g transform="translate(0.000000,226.000000) scale(0.100000,-0.100000)"
fill="#000000" stroke="none">
<path d="M398 2249 c-10 -5 -22 -28 -28 -49 -9 -32 -15 -40 -34 -40 -13 0 -29
7 -36 15 -17 21 -37 19 -52 -5 -18 -28 -72 -27 -92 1 -10 15 -26 22 -53 23
-38 1 -38 1 -37 -37 1 -27 8 -43 23 -53 27 -19 28 -64 1 -87 -24 -20 -26 -40
-5 -57 8 -7 15 -23 15 -36 0 -19 -8 -25 -40 -34 -55 -15 -84 -76 -42 -87 13
-3 19 -14 19 -34 0 -31 27 -69 50 -69 11 0 13 -99 13 -570 0 -471 -2 -570 -13
-570 -23 0 -50 -38 -50 -69 0 -20 -6 -31 -19 -34 -26 -7 -24 -53 5 -71 12 -7
34 -16 50 -20 20 -5 27 -12 27 -30 0 -13 -7 -29 -15 -36 -21 -17 -19 -37 5
-57 27 -23 26 -68 -1 -87 -15 -10 -22 -26 -23 -53 -1 -37 0 -38 35 -37 22 1
44 9 58 23 24 24 81 29 81 7 0 -23 39 -30 59 -12 32 29 59 20 71 -24 15 -55
76 -84 87 -42 3 13 14 19 36 19 22 0 38 8 57 31 l26 32 924 0 924 0 26 -32
c19 -23 35 -31 57 -31 22 0 33 -6 36 -19 11 -42 72 -13 87 42 9 32 15 40 34
40 13 0 29 -7 36 -15 17 -21 37 -19 52 5 17 27 62 26 89 -1 14 -14 36 -22 58
-23 35 -1 36 0 35 37 -1 27 -8 43 -23 53 -27 19 -28 64 -1 87 24 20 26 40 5
57 -8 7 -15 23 -15 36 0 19 8 25 40 34 55 15 84 76 41 87 -12 3 -18 14 -19 35
-1 32 -26 68 -49 68 -11 0 -13 99 -13 570 0 471 2 570 13 570 23 0 48 36 49
68 1 21 7 32 19 35 43 11 14 72 -41 87 -32 9 -40 15 -40 34 0 13 7 29 15 36
20 17 19 33 -5 55 -27 24 -26 70 1 89 15 10 22 26 23 53 1 38 1 38 -37 37 -27
-1 -43 -8 -53 -23 -20 -28 -74 -29 -92 -1 -15 24 -35 26 -52 5 -7 -8 -23 -15
-36 -15 -19 0 -25 8 -34 40 -15 55 -76 84 -87 42 -3 -13 -14 -19 -36 -19 -22
0 -38 -8 -57 -31 l-26 -32 -924 0 -924 0 -26 32 c-19 23 -35 31 -57 31 -22 0
-33 6 -36 19 -6 20 -32 23 -59 7z m52 -18 c0 -16 8 -20 42 -23 35 -2 45 -8 56
-30 l13 -28 939 0 939 0 13 28 c11 22 21 28 56 30 34 3 42 7 42 23 0 27 36 25
54 -3 8 -13 18 -35 21 -50 8 -33 41 -38 80 -12 22 15 25 14 42 -5 25 -30 73
-27 108 5 55 51 102 4 51 -51 -32 -35 -35 -83 -5 -108 19 -17 20 -19 4 -43
-24 -37 -16 -67 21 -79 17 -6 38 -16 47 -24 24 -19 22 -51 -2 -51 -16 0 -20
-8 -23 -42 -2 -35 -8 -45 -30 -56 l-28 -13 0 -570 0 -569 24 -9 c26 -11 36
-30 36 -72 0 -22 5 -29 20 -29 13 0 20 -7 20 -19 0 -23 -23 -43 -64 -56 -37
-12 -45 -42 -21 -79 15 -23 15 -26 -4 -45 -29 -29 -27 -72 5 -106 48 -51 4
-105 -46 -55 -33 33 -86 38 -111 11 -19 -21 -22 -21 -45 -7 -13 9 -34 16 -48
16 -19 0 -26 -7 -31 -33 -4 -17 -14 -40 -23 -49 -21 -24 -52 -23 -52 1 0 15
-7 19 -34 19 -42 0 -55 7 -66 38 l-10 24 -940 0 -940 0 -10 -24 c-11 -31 -24
-38 -66 -38 -27 0 -34 -4 -34 -19 0 -24 -31 -25 -52 -1 -9 9 -19 32 -23 50 -5
25 -12 32 -31 32 -14 0 -36 -8 -50 -17 -25 -16 -27 -16 -44 7 -14 19 -24 22
-53 17 -19 -3 -45 -15 -57 -27 -50 -50 -94 4 -46 55 32 34 34 77 5 106 -19 19
-19 22 -4 45 26 40 16 67 -30 82 -42 14 -55 26 -55 55 0 10 8 17 19 17 16 0
20 8 23 42 2 35 8 45 31 56 l27 13 0 569 0 569 -28 13 c-22 11 -28 21 -30 56
-3 34 -7 42 -23 42 -24 0 -26 32 -2 51 9 8 30 18 47 24 37 12 45 42 21 79 -16
24 -15 26 4 43 30 25 27 73 -5 108 -51 55 -4 102 51 51 35 -32 83 -35 108 -5
17 19 20 20 42 5 13 -9 35 -16 49 -16 19 0 26 7 31 33 4 17 14 40 23 50 21 23
52 22 52 -2z"/>
<path d="M404 2215 c-8 -20 3 -48 16 -40 5 3 10 1 10 -6 0 -10 3 -10 12 -1 19
19 58 15 58 -6 0 -10 5 -23 12 -30 17 -17 1959 -17 1976 0 7 7 12 20 12 30 0
22 42 25 59 4 9 -11 6 -12 -15 -8 -21 4 -25 1 -22 -14 2 -10 14 -21 28 -25
l25 -7 -26 -1 c-48 -2 -65 -51 -27 -75 14 -8 21 -7 34 6 16 16 15 17 -10 24
-33 8 -29 28 7 32 25 3 34 -3 72 -53 13 -17 13 -15 -1 18 -8 22 -14 51 -12 65
4 37 -16 43 -22 6 -5 -24 -7 -26 -13 -11 -4 11 -5 23 -2 27 7 11 -43 50 -65
50 -19 0 -50 -30 -50 -48 0 -9 -233 -12 -960 -12 -798 0 -960 2 -960 13 0 8
-9 22 -20 32 -18 17 -32 17 -72 0 -15 -6 -18 -2 -18 19 0 28 -17 35 -26 11z"/>
<path d="M2567 2216 c-3 -8 0 -22 8 -33 13 -17 14 -17 20 0 8 20 0 47 -14 47
-5 0 -11 -6 -14 -14z"/>
<path d="M90 2156 c0 -7 9 -20 21 -27 16 -11 22 -28 26 -78 6 -61 5 -63 -16
-56 -13 4 -21 2 -21 -5 0 -16 31 -25 40 -11 5 9 14 6 33 -13 31 -31 48 -33 72
-6 17 19 17 22 3 36 -9 9 -21 13 -27 10 -17 -11 -13 -29 4 -22 9 3 15 0 15
-10 0 -26 -30 -28 -56 -4 -30 29 -30 37 -1 36 15 -1 23 5 25 21 2 14 11 23 25
25 16 2 22 10 21 26 -1 28 7 28 36 -2 24 -26 22 -56 -4 -56 -10 0 -13 6 -10
15 7 17 -11 21 -22 4 -3 -6 1 -18 10 -27 14 -14 17 -14 36 3 27 24 25 41 -7
72 -15 16 -21 29 -15 31 18 6 14 42 -4 42 -11 0 -14 -6 -9 -21 7 -21 5 -22
-56 -16 -50 4 -67 10 -78 26 -15 24 -41 28 -41 7z m100 -57 c0 13 20 14 40 1
12 -8 9 -15 -20 -45 -18 -19 -37 -35 -41 -35 -14 0 -22 44 -10 48 9 3 7 11 -4
29 l-16 24 25 -16 c16 -11 26 -13 26 -6z"/>
<path d="M387 2164 c-3 -4 -4 -19 -1 -33 3 -15 -1 -45 -10 -67 -14 -33 -14
-36 -1 -19 38 50 47 56 72 53 36 -4 40 -24 7 -32 -25 -7 -26 -8 -10 -24 13
-13 20 -14 34 -6 38 24 21 73 -27 75 l-26 1 25 7 c14 4 26 15 28 24 3 14 -3
17 -27 15 -16 -1 -27 -6 -25 -10 3 -4 0 -16 -5 -25 -9 -16 -10 -14 -11 9 0 27
-12 43 -23 32z"/>
<path d="M2869 2149 c-11 -16 -28 -22 -78 -26 -61 -6 -63 -5 -56 16 5 15 2 21
-9 21 -18 0 -22 -36 -4 -42 6 -2 0 -15 -15 -31 -32 -31 -34 -48 -7 -72 19 -17
22 -17 36 -3 9 9 13 21 10 27 -11 17 -29 13 -22 -5 4 -11 1 -14 -11 -12 -26 5
-27 33 -2 57 29 27 36 26 35 -1 -1 -16 5 -24 21 -26 14 -2 23 -11 25 -25 2
-16 10 -22 26 -21 28 1 28 -7 -2 -36 -26 -24 -56 -22 -56 4 0 10 6 13 15 10
17 -7 21 11 4 22 -6 3 -18 -1 -27 -10 -14 -14 -14 -17 3 -36 24 -27 41 -25 72
6 19 19 28 22 33 13 9 -14 40 -5 40 12 0 6 -7 8 -17 5 -25 -10 -31 10 -21 67
6 33 16 57 29 66 10 7 19 20 19 27 0 21 -26 17 -41 -7z m-25 -54 c-10 -15 -12
-25 -5 -25 13 0 14 -20 1 -40 -8 -12 -15 -9 -45 20 -19 18 -35 37 -35 41 0 13
42 22 49 10 5 -8 13 -7 27 4 26 20 27 19 8 -10z"/>
<path d="M313 2133 c-18 -6 -16 -32 2 -39 20 -8 19 -63 -2 -86 -18 -20 -4 -25
15 -6 15 15 26 4 18 -18 -5 -12 -14 -15 -36 -11 -28 6 -29 5 -23 -23 4 -22 1
-31 -11 -36 -22 -8 -33 3 -18 18 19 19 14 33 -6 15 -23 -21 -78 -22 -86 -2 -3
8 -12 15 -20 15 -23 0 -26 -27 -7 -52 18 -21 20 -22 59 -6 23 9 40 12 39 6 -1
-5 6 -15 15 -21 23 -15 61 19 55 49 -3 18 0 21 18 18 31 -5 63 31 48 54 -6 9
-16 16 -22 14 -7 -1 -5 10 5 29 25 50 1 97 -43 82z"/>
<path d="M2658 2132 c-26 -5 -32 -45 -14 -81 10 -19 12 -30 5 -29 -6 2 -16 -5
-22 -14 -15 -23 17 -59 48 -54 18 3 21 0 18 -18 -6 -30 32 -64 55 -49 9 6 16
16 15 21 -1 6 16 3 39 -6 39 -16 41 -15 59 6 19 25 16 52 -7 52 -8 0 -17 -7
-20 -15 -8 -20 -63 -19 -86 2 -20 18 -25 4 -6 -15 15 -15 4 -26 -18 -18 -11 4
-15 15 -12 36 4 27 3 28 -24 23 -20 -4 -29 -1 -34 11 -8 22 3 33 18 18 19 -19
33 -14 15 6 -21 23 -22 81 -2 88 34 13 10 45 -27 36z"/>
<path d="M510 2090 c24 -45 -21 -92 -66 -71 -13 6 -24 17 -24 26 0 8 -4 15 -9
15 -12 0 -24 -37 -17 -49 11 -17 -13 -61 -39 -71 -14 -5 -30 -21 -35 -35 -10
-26 -54 -50 -71 -39 -5 3 -18 2 -30 -1 -20 -7 -19 -7 5 -30 31 -29 33 -48 6
-75 -23 -23 -33 -24 -61 -10 -19 11 -19 0 -19 -620 0 -620 0 -631 19 -620 28
14 38 13 61 -10 27 -27 25 -46 -6 -75 -24 -23 -25 -23 -5 -30 12 -3 25 -4 30
-1 17 11 61 -13 71 -39 5 -14 21 -30 35 -35 26 -10 50 -54 39 -71 -7 -12 5
-49 17 -49 5 0 9 7 9 15 0 8 10 19 21 26 44 23 93 -26 69 -71 l-11 -20 1000 0
1001 0 -11 24 c-21 45 26 90 71 66 11 -6 20 -17 20 -25 0 -8 4 -15 9 -15 13 0
23 34 15 53 -8 22 13 56 42 67 13 5 29 21 34 35 10 26 54 50 71 39 5 -3 18 -2
30 1 20 7 19 7 -5 30 -31 29 -33 48 -6 75 23 23 33 24 61 10 19 -11 19 0 19
620 0 620 0 631 -19 620 -28 -14 -38 -13 -61 10 -27 27 -25 46 6 75 23 22 24
24 6 29 -11 4 -26 4 -35 0 -22 -8 -56 13 -67 42 -5 13 -21 29 -34 34 -30 11
-49 44 -41 69 6 21 -3 51 -16 51 -5 0 -9 -7 -9 -15 0 -8 -9 -19 -20 -25 -45
-24 -92 21 -71 66 l11 24 -1001 0 -1000 0 11 -20z m1962 -19 c-3 -20 2 -35 17
-50 27 -27 59 -27 89 2 l24 22 -6 -31 c-5 -23 -1 -37 14 -57 12 -15 28 -27 36
-27 8 0 19 -11 24 -24 13 -36 52 -58 86 -50 l29 7 -22 -25 c-29 -31 -29 -61
-1 -88 16 -15 31 -20 51 -16 l27 6 0 -611 c0 -602 0 -610 -20 -604 -20 6 -59
-9 -72 -29 -14 -20 -8 -50 15 -74 l22 -25 -29 7 c-34 8 -73 -14 -86 -50 -5
-13 -16 -24 -24 -24 -27 0 -57 -51 -50 -83 l6 -30 -27 21 c-35 28 -59 28 -86
1 -15 -15 -20 -30 -17 -50 l5 -29 -977 0 -977 0 5 29 c3 20 -2 35 -17 50 -27
27 -51 27 -86 -1 l-28 -22 7 28 c8 34 -14 73 -50 86 -13 5 -24 16 -24 24 0 8
-12 24 -27 36 -20 15 -34 19 -57 14 l-31 -6 22 24 c23 24 29 54 15 74 -13 20
-52 35 -72 29 -20 -6 -20 2 -20 605 0 603 0 611 20 605 20 -6 59 9 72 29 14
20 8 50 -14 74 l-23 25 29 -7 c34 -8 73 14 86 50 5 13 16 24 24 24 8 0 24 12
36 27 15 20 19 34 14 57 l-6 31 24 -22 c30 -29 62 -29 89 -2 16 16 20 29 15
50 l-5 29 978 0 978 0 -5 -29z"/>
<path d="M205 1888 c-11 -7 -40 -13 -65 -13 -49 -1 -58 -20 -9 -20 27 0 28 -1
12 -13 -10 -7 -22 -11 -28 -8 -6 2 -12 -10 -13 -26 -2 -23 1 -29 15 -26 9 2
20 14 24 28 l7 25 1 -28 c1 -34 41 -57 66 -37 19 16 19 34 0 50 -12 10 -15 7
-21 -15 -8 -32 -28 -28 -32 8 -3 26 14 49 54 74 25 15 15 16 -11 1z"/>
<path d="M2785 1885 c50 -38 56 -47 53 -72 -4 -36 -24 -40 -32 -8 -6 22 -9 25
-21 15 -21 -18 -18 -48 5 -55 30 -9 60 12 61 43 l1 27 7 -25 c4 -14 15 -26 25
-28 15 -3 18 1 14 22 -4 21 -3 24 8 15 21 -17 18 -59 -4 -59 -42 0 -42 2 -42
-630 0 -632 0 -630 42 -630 21 0 25 -39 6 -58 -9 -9 -9 -12 0 -12 7 0 11 -6 9
-12 -1 -8 8 -13 21 -13 28 0 30 19 2 23 -23 4 -23 4 -9 35 13 30 -1 62 -31 72
-20 6 -20 15 -20 595 0 577 0 588 20 593 11 3 25 17 31 31 11 23 10 31 -7 53
-11 15 -30 27 -42 28 -36 3 -46 20 -12 20 16 0 28 5 27 10 -1 6 -14 9 -29 7
-14 -2 -43 4 -65 12 -33 14 -35 14 -18 1z"/>
<path d="M37 1854 c-10 -11 2 -24 24 -24 22 0 23 -4 7 -29 -15 -25 4 -71 32
-78 20 -5 20 -16 20 -593 l0 -587 -25 -11 c-28 -13 -44 -57 -26 -75 17 -17 13
-25 -11 -29 -13 -2 -22 -7 -20 -13 3 -15 47 -12 45 3 -2 6 2 12 9 12 9 0 9 3
0 12 -19 19 -15 58 6 58 42 0 42 -2 42 630 0 632 0 630 -42 630 -21 0 -25 39
-6 58 9 9 9 12 0 12 -7 0 -11 6 -9 12 2 14 -35 23 -46 12z"/>
<path d="M2915 1850 c-8 -13 20 -24 41 -16 20 8 9 26 -16 26 -10 0 -22 -5 -25
-10z"/>
<path d="M168 489 c-10 -5 -19 -22 -19 -37 -1 -21 -2 -23 -6 -7 -5 20 -20 35
-36 35 -4 0 -6 -13 -5 -29 1 -16 7 -27 13 -25 6 3 18 -1 28 -8 16 -12 15 -13
-12 -13 -17 0 -30 -4 -30 -10 0 -5 13 -9 29 -7 15 2 45 -4 67 -12 21 -8 29
-10 19 -3 -37 24 -56 47 -56 71 0 24 16 43 26 33 3 -3 6 -14 7 -26 1 -24 15
-23 31 1 7 12 6 21 -3 32 -15 18 -29 20 -53 5z"/>
<path d="M2782 488 c-16 -16 -15 -33 3 -48 12 -10 15 -7 21 15 8 32 28 28 32
-8 3 -26 -13 -48 -54 -74 -10 -7 -2 -5 19 3 22 8 52 14 67 12 16 -2 28 2 27 7
-1 6 -15 10 -30 10 -25 0 -26 1 -10 13 10 7 22 11 28 8 6 -2 12 9 13 25 1 16
-1 29 -5 29 -16 0 -31 -15 -36 -35 -4 -15 -5 -14 -6 7 -1 39 -44 61 -69 36z"/>
<path d="M241 367 c-6 -8 -7 -17 -3 -22 4 -4 -7 0 -25 9 -18 9 -39 16 -47 16
-19 0 -46 -38 -39 -56 7 -19 32 -18 39 1 8 20 63 19 86 -2 20 -18 25 -4 6 15
-15 15 -4 26 18 18 12 -5 15 -14 11 -36 -6 -28 -5 -29 23 -23 22 4 31 1 36
-11 8 -22 -3 -33 -18 -18 -19 19 -33 14 -15 -6 21 -23 22 -81 2 -88 -8 -4 -15
-12 -15 -19 0 -16 25 -26 45 -19 23 9 28 49 11 83 -10 19 -12 30 -5 29 6 -2
16 5 22 14 15 23 -19 61 -49 55 -17 -3 -20 0 -16 15 5 20 -23 58 -43 58 -7 0
-18 -6 -24 -13z"/>
<path d="M2705 360 c-9 -10 -15 -28 -13 -38 4 -15 1 -18 -16 -15 -30 6 -64
-32 -49 -55 6 -9 16 -16 22 -14 7 1 6 -9 -4 -27 -19 -38 -19 -56 1 -75 18 -18
23 -19 44 -6 12 8 12 11 -3 28 -22 24 -22 70 0 94 18 20 4 25 -15 6 -15 -15
-26 -4 -18 18 5 12 14 15 34 11 27 -5 28 -4 24 23 -3 21 1 32 12 36 22 8 33
-3 18 -18 -19 -19 -14 -33 6 -15 23 21 78 22 86 2 7 -19 32 -20 39 -1 7 18
-20 56 -39 56 -8 0 -29 -7 -47 -16 -18 -9 -29 -13 -25 -9 10 10 -10 35 -27 35
-6 0 -20 -9 -30 -20z"/>
<path d="M173 294 c-19 -19 -28 -22 -33 -13 -9 14 -40 5 -40 -11 0 -7 8 -9 21
-5 21 7 22 5 16 -56 -4 -50 -10 -67 -26 -78 -24 -15 -28 -41 -7 -41 7 0 20 9
27 20 11 15 30 22 78 27 62 6 63 5 56 -15 -5 -16 -2 -22 9 -22 18 0 22 36 4
42 -6 2 0 15 15 31 32 31 34 48 7 72 -19 17 -22 17 -36 3 -9 -9 -13 -21 -10
-27 11 -17 29 -13 22 5 -4 11 -1 14 11 12 26 -5 27 -33 2 -57 -29 -27 -36 -26
-35 2 1 15 -5 23 -21 25 -14 2 -23 11 -25 25 -2 16 -10 22 -25 21 -29 -1 -29
7 0 35 25 23 57 20 57 -5 0 -8 -6 -11 -15 -8 -17 7 -21 -11 -4 -22 6 -3 18 1
27 10 14 14 14 17 -3 36 -24 27 -41 25 -72 -6z m36 -90 c28 -29 32 -38 20 -45
-19 -12 -39 -11 -39 2 0 7 -10 5 -26 -6 l-25 -16 16 24 c11 18 13 26 4 29 -12
4 -4 48 9 48 4 0 23 -16 41 -36z"/>
<path d="M2755 300 c-17 -19 -17 -22 -3 -36 9 -9 21 -13 27 -10 17 11 13 29
-4 22 -9 -3 -15 0 -15 8 0 25 32 28 57 5 29 -28 29 -36 1 -35 -16 1 -24 -5
-26 -21 -2 -14 -11 -23 -25 -25 -16 -2 -22 -10 -21 -25 1 -28 -6 -29 -35 -2
-25 24 -24 52 2 57 12 2 15 -1 11 -12 -7 -18 11 -22 22 -5 3 6 -1 18 -10 27
-14 14 -17 14 -36 -3 -27 -24 -25 -41 7 -72 15 -16 21 -29 15 -31 -18 -6 -14
-42 4 -42 11 0 14 6 9 22 -7 20 -6 21 56 15 48 -5 67 -12 78 -27 15 -23 41
-27 41 -6 0 7 -9 20 -19 27 -13 9 -23 33 -29 66 -10 57 -4 77 21 67 10 -3 17
-1 17 5 0 17 -31 26 -40 12 -5 -9 -14 -6 -33 13 -31 31 -48 33 -72 6z m91 -82
c4 -14 2 -24 -5 -26 -9 -3 -7 -11 4 -29 l16 -24 -25 16 c-16 11 -26 13 -26 6
0 -13 -20 -14 -39 -2 -12 7 -8 16 20 45 39 42 45 44 55 14z"/>
<path d="M376 197 c8 -22 14 -51 12 -65 -4 -38 16 -44 22 -7 5 25 7 27 13 12
4 -11 5 -22 3 -26 -3 -4 9 -8 25 -9 24 -2 30 1 27 15 -2 9 -14 20 -28 24 l-25
7 26 1 c48 2 65 51 27 75 -14 8 -21 7 -34 -6 -16 -16 -15 -17 10 -24 33 -8 29
-28 -7 -32 -25 -3 -34 3 -72 53 -13 17 -13 15 1 -18z"/>
<path d="M2512 218 c-28 -28 -6 -67 38 -69 l25 -1 -25 -7 c-14 -4 -26 -15 -28
-25 -3 -16 1 -18 24 -13 l29 5 -23 -18 c-26 -22 -52 -16 -52 10 0 10 -6 23
-13 29 -19 15 -1955 15 -1974 0 -7 -6 -13 -19 -13 -29 0 -25 -24 -31 -49 -14
-12 9 -21 11 -21 5 0 -6 -6 -10 -12 -9 -17 4 -17 -44 0 -50 7 -2 12 6 12 22 0
26 13 35 25 16 17 -27 85 4 85 38 0 9 233 12 960 12 798 0 960 -2 960 -13 0
-20 33 -47 57 -47 21 0 57 33 59 53 3 35 7 39 13 13 8 -38 27 -35 23 4 -2 15
4 45 12 67 14 33 14 35 1 18 -38 -50 -47 -56 -72 -53 -36 4 -40 24 -8 32 22 6
25 9 15 21 -15 18 -32 19 -48 3z"/>
<path d="M2571 72 c-11 -21 1 -48 18 -38 13 9 15 43 2 51 -6 3 -14 -3 -20 -13z"/>
</g>
</svg>
