<?xml version="1.0" standalone="no"?>
<!DOCTYPE svg PUBLIC "-//W3C//DTD SVG 20010904//EN"
 "http://www.w3.org/TR/2001/REC-SVG-20010904/DTD/svg10.dtd">
<svg version="1.0" xmlns="http://www.w3.org/2000/svg"
 width="300.000000pt" height="300.000000pt" viewBox="0 0 300.000000 300.000000"
 preserveAspectRatio="xMidYMid meet">
<metadata>
Created by potrace 1.10, written by Peter Selinger 2001-2011
</metadata>
<g transform="translate(0.000000,300.000000) scale(0.100000,-0.100000)"
fill="#000000" stroke="none">
<path d="M1695 2979 c-22 -5 -157 -29 -300 -54 -143 -26 -309 -57 -370 -70
-176 -38 -368 -84 -373 -90 -3 -3 46 -5 109 -5 73 0 109 4 99 9 -8 6 -18 7
-23 4 -5 -3 -8 0 -5 8 3 8 15 15 29 17 13 2 43 10 67 18 24 8 80 21 125 29
124 22 139 25 175 35 21 5 32 5 32 -2 0 -6 6 -6 15 2 8 7 34 14 58 16 23 2 70
10 105 18 34 9 97 18 140 21 97 7 133 14 151 32 18 19 13 21 -34 12z"/>
<path d="M2035 2978 c11 -8 34 -18 50 -22 27 -7 28 -6 15 8 -8 9 -31 18 -50
22 -33 6 -34 5 -15 -8z"/>
<path d="M2100 2913 c0 -13 14 -28 43 -46 28 -18 64 -16 52 2 -3 6 -13 7 -22
4 -11 -4 -14 -3 -9 6 5 8 1 14 -13 18 -12 3 -21 9 -21 14 0 5 -7 9 -15 9 -8 0
-15 -3 -15 -7z"/>
<path d="M2171 2831 c-1 -8 -7 -11 -17 -7 -11 4 -15 2 -11 -8 3 -8 -1 -17 -10
-20 -32 -13 -4 -17 36 -6 39 10 57 30 27 30 -8 0 -17 6 -19 13 -4 9 -6 9 -6
-2z"/>
<path d="M2039 2799 c15 -6 34 -6 50 0 22 8 19 9 -24 10 -42 0 -46 -2 -26 -10z"/>
<path d="M1559 2785 c-3 -2 -61 -7 -129 -10 -68 -3 -126 -7 -128 -10 -3 -3 48
-5 114 -4 81 0 127 5 144 14 14 8 20 14 14 15 -6 0 -13 -2 -15 -5z"/>
<path d="M1630 2774 l-35 -13 30 0 c17 0 39 6 49 14 24 18 5 18 -44 -1z"/>
<path d="M1732 2780 c-47 -11 -49 -18 -6 -18 21 0 44 6 51 14 17 16 9 17 -45
4z"/>
<path d="M1846 2779 c-55 -13 -57 -19 -5 -19 25 0 54 7 65 15 19 14 19 14 -1
14 -11 -1 -38 -5 -59 -10z"/>
<path d="M2225 2775 l-50 -13 40 -1 c22 0 47 3 55 9 25 15 7 17 -45 5z"/>
<path d="M1208 2769 c-8 -5 5 -9 35 -9 27 0 46 4 42 9 -7 12 -59 11 -77 0z"/>
<path d="M453 2703 c-63 -22 -103 -41 -103 -49 0 -19 24 -18 40 1 7 8 21 15
30 15 10 0 31 6 47 14 70 35 112 40 348 46 l240 6 -250 1 -250 1 -102 -35z"/>
<path d="M1278 2733 c23 -2 59 -2 80 0 20 2 1 4 -43 4 -44 0 -61 -2 -37 -4z"/>
<path d="M1549 2724 c-5 -6 -5 -15 -1 -20 4 -5 -3 0 -15 10 -22 18 -31 13 -15
-9 8 -13 17 -12 57 3 69 28 72 31 27 29 -24 -1 -48 -7 -53 -13z"/>
<path d="M1738 2718 c2 -10 9 -18 14 -18 5 0 6 5 2 12 -5 7 -2 9 9 5 8 -3 21
1 28 9 10 13 7 14 -23 12 -28 -1 -34 -5 -30 -20z"/>
<path d="M2060 2725 c0 -28 77 -26 127 4 14 9 2 11 -54 10 -51 -2 -73 -6 -73
-14z"/>
<path d="M1850 2685 c-74 -18 -148 -38 -164 -44 -16 -7 -34 -10 -40 -8 -6 2
-20 1 -31 -4 -29 -11 10 -13 226 -10 70 1 108 5 104 11 -3 6 -37 10 -76 10
-39 0 -69 4 -69 10 0 6 6 11 13 12 19 2 28 4 87 16 30 7 72 14 93 18 37 5 38
5 32 -23 l-7 -28 15 25 c7 14 20 24 27 22 11 -3 11 0 0 12 -18 22 -56 19 -210
-19z"/>
<path d="M1380 2676 c-6 -8 -21 -16 -33 -18 -12 -2 -21 -9 -19 -16 1 -7 -9
-12 -25 -12 l-28 0 25 20 c27 21 22 26 -10 10 -11 -5 -29 -15 -40 -20 -25 -13
-26 -2 -2 16 15 13 15 14 -10 11 -15 -2 -31 -7 -35 -12 -4 -4 -2 -5 5 -1 6 4
12 3 12 -2 0 -5 -10 -12 -22 -16 -33 -8 -45 -7 -28 4 8 5 11 13 6 17 -4 4 -14
-1 -22 -11 -8 -12 -14 -15 -14 -7 0 11 -3 11 -15 1 -11 -9 -15 -9 -15 -1 0 7
-5 9 -12 4 -7 -4 -146 -6 -308 -5 -173 1 -301 -3 -310 -8 -10 -6 82 -10 260
-11 449 -3 592 0 607 13 11 9 13 8 11 -3 -2 -9 7 -15 25 -17 24 -3 27 0 27 25
l1 28 14 -25 c8 -14 15 -20 15 -15 0 6 5 3 10 -5 8 -12 10 -11 10 7 0 16 4 21
15 17 8 -4 15 -1 15 5 0 6 -14 11 -30 11 -18 0 -33 6 -36 15 -8 19 -28 19 -44
1z"/>
<path d="M2474 2680 c-27 -11 -220 -49 -262 -52 -19 -1 -36 -6 -38 -10 -7 -11
122 -10 168 1 22 5 38 5 40 -1 2 -5 13 -5 28 1 l25 10 -25 1 c-17 1 -6 8 37
23 62 22 89 38 62 36 -8 0 -23 -4 -35 -9z"/>
<path d="M2053 2645 c2 -29 4 -30 57 -33 l55 -3 -24 25 c-25 27 -70 35 -72 14
0 -7 -4 -4 -9 7 -8 17 -9 15 -7 -10z"/>
<path d="M225 2618 c-112 -45 -200 -104 -202 -137 -1 -11 2 -21 8 -21 5 0 9 4
9 9 0 22 61 75 110 97 8 3 39 17 69 30 29 13 66 24 81 24 19 0 29 6 33 20 6
25 11 26 -108 -22z"/>
<path d="M1544 2645 c-4 -8 -15 -15 -26 -15 -34 0 -11 -16 28 -18 30 -2 35 0
30 13 -3 9 -6 21 -6 26 0 15 -20 10 -26 -6z"/>
<path d="M455 2600 c-3 -5 -5 -29 -5 -52 1 -24 1 -109 0 -191 0 -81 2 -151 5
-157 3 -5 -1 -23 -10 -40 -8 -16 -13 -30 -10 -30 4 0 -1 -7 -9 -16 -9 -8 -14
-20 -11 -25 4 -5 2 -9 -3 -9 -20 0 -55 -84 -60 -146 -2 -35 -2 -64 1 -64 5 0
20 45 32 95 6 28 19 45 34 45 14 0 14 2 1 10 -13 8 -13 10 1 10 10 0 20 11 24
27 5 21 8 24 15 13 6 -9 9 96 10 263 0 152 -2 277 -4 277 -3 0 -8 -4 -11 -10z"/>
<path d="M2570 2603 c-14 -3 -29 -9 -34 -14 -16 -15 36 -10 64 6 25 14 17 16
-30 8z"/>
<path d="M2598 2550 c-19 -9 -39 -15 -46 -12 -9 3 -12 -40 -12 -172 l0 -176
28 6 c15 3 34 8 44 10 9 3 19 1 22 -5 3 -5 -16 -12 -44 -16 -40 -5 -50 -11
-50 -26 0 -16 5 -17 33 -12 85 17 77 1 80 166 2 125 0 147 -13 147 -13 0 -13
1 0 10 13 8 12 10 -2 10 -10 0 -18 8 -18 18 -1 14 -3 13 -13 -5 l-12 -21 -18
24 c-17 23 -17 24 19 39 20 8 40 15 45 15 4 0 10 4 13 8 8 14 -20 10 -56 -8z
m16 -106 c13 -5 16 -22 16 -80 0 -43 -4 -74 -10 -74 -6 0 -6 -7 1 -19 16 -24
5 -51 -20 -51 -26 0 -37 36 -20 66 9 18 10 30 1 49 -13 28 -16 98 -5 108 8 9
17 9 37 1z"/>
<path d="M25 2442 c-14 -14 -2 -30 35 -46 25 -11 40 -24 40 -35 0 -11 24 -31
62 -54 62 -37 98 -46 98 -27 0 6 -6 10 -14 10 -21 0 -86 40 -122 75 -55 53
-93 83 -99 77z"/>
<path d="M2670 2355 c0 -78 3 -95 15 -95 12 0 15 12 14 58 -1 31 -1 62 0 69 1
14 44 8 49 -7 2 -5 10 -10 18 -10 8 0 23 -9 35 -21 16 -16 18 -23 8 -35 -9
-11 -8 -14 9 -14 37 0 82 12 76 21 -3 5 5 5 18 0 13 -5 22 -14 21 -20 -2 -6 4
-8 14 -4 14 5 12 10 -10 28 -27 21 -38 53 -14 39 9 -5 9 -3 -1 7 -11 12 -14
12 -22 -1 -9 -13 -11 -13 -20 0 -8 13 -10 12 -10 -2 0 -22 1 -22 -44 -3 -46
19 -46 25 -1 15 20 -5 33 -4 29 1 -3 5 -11 9 -18 9 -7 0 -43 14 -79 30 -37 17
-71 30 -77 30 -6 0 -10 -37 -10 -95z"/>
<path d="M2723 2286 c-11 -13 -6 -14 40 -10 40 3 47 2 29 -5 -19 -9 -68 -18
-109 -20 -17 -1 -17 -28 -1 -33 14 -5 80 12 88 22 3 3 34 14 70 25 70 20 104
38 49 26 -19 -4 -43 -6 -54 -4 -76 13 -101 13 -112 -1z"/>
<path d="M2906 2264 c-27 -7 -52 -17 -55 -22 -3 -5 -45 -17 -93 -28 -58 -12
-88 -23 -88 -32 0 -10 9 -12 33 -7 24 5 28 4 17 -4 -8 -6 -23 -11 -32 -11 -10
0 -18 -5 -18 -11 0 -6 6 -9 13 -7 6 3 37 13 67 23 63 20 84 34 43 29 l-28 -4
30 10 c17 5 36 8 43 5 7 -3 11 -1 8 4 -3 4 12 13 34 20 22 6 59 20 82 31 35
15 38 18 18 18 -14 0 -47 -7 -74 -14z"/>
<path d="M305 2261 c-6 -6 -21 -16 -35 -24 -66 -36 -90 -53 -90 -64 0 -18 5
-16 36 12 15 14 33 25 40 25 8 0 14 4 14 9 0 5 14 14 30 20 17 5 30 15 30 20
0 14 -13 14 -25 2z"/>
<path d="M2952 2155 c-19 -8 -90 -33 -158 -56 l-124 -41 0 -89 0 -90 23 12
c22 12 78 50 87 59 3 3 17 11 32 19 14 7 29 22 31 32 3 11 13 19 22 19 10 0
13 5 9 12 -5 8 -2 9 9 5 11 -4 17 -1 17 8 0 8 12 21 28 29 15 8 38 24 52 36
20 18 22 23 10 30 -10 7 -11 10 -2 10 6 0 12 5 12 10 0 13 -8 12 -48 -5z
m-134 -130 c-59 -53 -104 -82 -114 -72 -13 12 -7 78 8 93 19 20 70 33 122 31
l39 -1 -55 -51z"/>
<path d="M147 2149 c-9 -6 -14 -15 -11 -21 5 -7 2 -9 -8 -6 -8 4 -20 -2 -26
-13 -19 -30 7 -24 46 11 42 39 42 54 -1 29z"/>
<path d="M250 2143 c-8 -4 -20 -12 -27 -18 -18 -19 -112 -47 -134 -40 -10 4
-19 2 -19 -3 0 -6 6 -12 12 -14 8 -3 4 -10 -11 -17 -17 -10 -21 -10 -16 -1 5
8 1 11 -11 8 -21 -4 -49 -51 -33 -56 5 -2 15 1 22 6 7 6 62 36 122 67 107 56
140 76 120 74 -6 0 -17 -3 -25 -6z"/>
<path d="M2588 2137 c-27 -6 -48 -16 -48 -23 0 -9 13 -8 53 3 28 9 56 19 62
24 11 11 -3 10 -67 -4z"/>
<path d="M2772 2138 c-6 -6 -26 -13 -44 -15 -46 -5 -58 -10 -58 -28 0 -18 34
-20 52 -2 7 7 28 19 46 26 17 7 32 17 32 22 0 13 -14 11 -28 -3z"/>
<path d="M309 2106 c-2 -3 -18 -7 -34 -10 -16 -3 -31 -10 -33 -16 -2 -5 -8 -8
-13 -4 -5 3 -9 0 -9 -6 0 -6 -4 -9 -9 -6 -5 3 -14 -1 -21 -9 -11 -13 -8 -14
18 -9 17 4 32 1 36 -5 4 -6 12 -11 18 -11 7 0 7 5 -1 14 -9 11 -8 18 4 30 19
19 37 20 53 4 9 -9 12 -7 12 10 0 20 -10 29 -21 18z"/>
<path d="M2568 2092 c-17 -2 -28 -9 -28 -18 0 -8 4 -12 10 -9 14 8 50 15 50 9
0 -3 -13 -10 -30 -15 l-30 -11 0 -339 c0 -333 0 -340 19 -329 11 5 23 15 26
21 4 5 17 14 30 19 35 13 41 35 34 135 l-5 90 -2 -85 c-2 -48 -8 -92 -15 -101
-18 -24 -55 -41 -62 -29 -3 5 -5 85 -4 177 0 93 -2 176 -6 186 -8 20 18 46 47
47 9 0 21 8 27 18 5 9 13 16 18 15 4 -2 8 2 7 7 -1 6 -2 46 -2 90 -2 99 -22
108 -22 10 0 -57 -4 -74 -20 -90 -12 -12 -25 -18 -29 -15 -5 3 -9 35 -8 71 1
59 3 67 24 75 34 13 28 18 -14 13 -29 -4 -34 -3 -23 5 8 6 25 11 38 11 33 0
62 18 56 34 -5 14 -25 16 -86 8z"/>
<path d="M290 2034 c0 -8 -1 -17 -2 -21 -2 -3 6 -7 18 -9 16 -3 20 2 19 18 -2
23 -35 35 -35 12z"/>
<path d="M457 2010 c-5 -25 -8 -129 -8 -232 1 -163 -1 -188 -16 -203 -16 -17
-16 -17 7 -10 14 4 26 9 28 10 1 1 1 110 0 241 -2 161 -6 224 -11 194z"/>
<path d="M2975 2010 c-4 -6 -14 -9 -23 -8 -12 2 -16 -3 -14 -16 3 -13 -1 -17
-12 -13 -9 4 -15 2 -13 -2 3 -11 -70 -91 -83 -91 -5 0 -22 -19 -39 -42 -44
-64 -90 -110 -101 -103 -11 7 -12 -1 -14 -78 -1 -40 1 -45 11 -30 7 9 10 26 7
39 -7 26 14 52 186 227 63 65 117 120 119 123 2 2 -1 4 -7 4 -6 0 -14 -5 -17
-10z"/>
<path d="M2810 1925 c-19 -14 -28 -25 -20 -25 10 -1 4 -10 -15 -27 -28 -25
-28 -25 -5 -18 32 9 77 55 77 78 0 9 -1 17 -1 17 -1 -1 -17 -12 -36 -25z"/>
<path d="M325 1873 c-10 -64 -13 -77 -23 -110 -9 -28 -8 -31 9 -30 10 1 19 8
20 17 0 8 2 48 5 88 5 77 -1 96 -11 35z"/>
<path d="M2713 1869 c-41 -19 -57 -49 -34 -63 5 -4 8 5 7 18 -3 24 7 28 31 13
9 -6 11 -3 7 7 -4 9 5 20 23 30 41 22 15 19 -34 -5z"/>
<path d="M2800 1745 c-41 -42 -70 -63 -80 -60 -8 3 -11 2 -6 -2 17 -17 52 -7
75 22 14 17 40 47 60 68 60 64 19 40 -49 -28z"/>
<path d="M356 1753 c-4 -9 1 -24 11 -35 17 -18 18 -19 24 -1 12 30 10 38 -4
18 -11 -14 -16 -15 -22 -5 -4 7 -2 16 5 20 8 5 8 10 2 14 -5 3 -13 -1 -16 -11z"/>
<path d="M2821 1711 c-34 -33 -49 -55 -45 -66 4 -9 -4 -25 -20 -40 -14 -13
-26 -29 -26 -35 0 -7 16 4 35 24 19 20 40 36 47 36 7 0 5 5 -6 11 -10 6 -14
14 -9 18 14 10 86 101 80 101 -4 0 -29 -22 -56 -49z"/>
<path d="M270 1700 c-7 -15 -7 -80 0 -80 5 0 6 7 3 17 -4 10 -2 14 5 9 6 -3
14 -1 18 5 4 7 3 9 -4 5 -6 -4 -12 5 -15 21 -2 16 -5 26 -7 23z"/>
<path d="M397 1693 c-4 -3 -7 -15 -7 -25 0 -10 -4 -18 -10 -18 -5 0 -10 -7
-10 -15 0 -8 -4 -15 -10 -15 -5 0 -10 -9 -10 -20 0 -25 16 -26 29 -1 10 17 31
101 27 101 -2 0 -6 -3 -9 -7z"/>
<path d="M2859 1627 c-50 -43 -83 -67 -93 -67 -5 0 -14 -8 -21 -17 -7 -9 -20
-18 -29 -19 -13 -2 -15 3 -10 18 4 14 2 18 -5 14 -7 -5 -11 1 -11 15 0 38 -7
17 -14 -43 -6 -42 -4 -58 4 -58 7 0 10 8 7 20 -6 22 8 28 17 8 5 -10 7 -10 12
0 3 6 10 12 15 12 9 0 20 9 69 53 14 12 28 21 33 20 4 -2 7 2 7 7 0 6 3 9 8 8
11 -4 62 38 55 46 -10 9 -16 7 -44 -17z"/>
<path d="M235 1632 c-18 -13 -14 -26 13 -46 14 -11 22 -13 17 -6 -6 10 -4 12
9 7 11 -4 15 -3 11 4 -4 6 -13 8 -20 5 -14 -5 -29 20 -19 35 6 11 3 11 -11 1z"/>
<path d="M196 1539 c-9 -29 -14 -54 -12 -57 8 -7 26 9 21 19 -4 5 -2 9 4 9 6
0 15 9 21 20 8 15 7 25 -4 41 -14 20 -15 19 -30 -32z"/>
<path d="M357 1553 c-3 -5 -5 -30 -5 -58 0 -27 2 -43 5 -35 3 8 14 27 24 41
20 29 14 46 -9 26 -13 -10 -14 -8 -8 11 7 21 2 30 -7 15z"/>
<path d="M442 1527 c-20 -29 -21 -32 -5 -36 10 -2 21 -8 25 -15 4 -6 8 10 8
37 0 26 -1 47 -2 47 -2 0 -13 -15 -26 -33z"/>
<path d="M2854 1545 c-4 -8 -10 -12 -15 -9 -5 3 -8 0 -7 -7 2 -7 -3 -13 -9
-14 -7 0 -12 -4 -10 -10 1 -5 7 -9 12 -7 15 5 55 44 55 54 0 14 -20 9 -26 -7z"/>
<path d="M275 1505 c-5 -11 -10 -23 -12 -27 -2 -4 3 -5 11 -2 19 7 21 -7 4
-25 -9 -9 -9 -12 -1 -7 6 3 14 0 16 -6 4 -10 6 -10 6 0 1 6 6 12 12 12 6 0 8
-7 5 -15 -3 -8 -9 -22 -12 -30 -7 -16 21 -22 30 -7 9 15 -6 82 -19 82 -6 0
-17 10 -22 23 -11 21 -11 21 -18 2z"/>
<path d="M413 1442 c-26 -33 -28 -38 -12 -37 10 1 22 5 26 10 5 4 2 5 -4 1
-18 -10 -16 9 2 24 11 9 15 9 15 1 0 -7 5 -9 10 -6 6 3 10 11 10 16 0 6 -5 7
-12 3 -8 -5 -9 -2 -5 9 9 24 6 22 -30 -21z"/>
<path d="M2701 1435 c-30 -35 -41 -75 -21 -75 9 0 14 15 8 23 -5 6 58 62 66
59 5 -3 7 1 4 8 -8 25 -25 21 -57 -15z"/>
<path d="M230 1420 c-7 -16 -17 -30 -22 -30 -5 0 -6 -5 -2 -11 4 -7 1 -10 -7
-7 -8 3 -13 12 -11 19 2 8 0 11 -4 6 -11 -10 -13 -47 -2 -41 10 7 10 1 -2 -30
-18 -49 0 -26 36 45 19 39 33 73 31 75 -2 3 -10 -9 -17 -26z"/>
<path d="M409 1368 l-57 -29 0 -97 c-1 -53 2 -90 5 -82 5 15 29 43 70 82 12
11 20 26 16 31 -4 6 -1 7 6 3 9 -6 8 -13 -5 -27 -9 -10 -12 -19 -7 -19 22 0
30 27 32 98 1 39 1 71 -1 71 -2 -1 -28 -15 -59 -31z m24 -52 c6 -14 -26 -56
-43 -56 -11 0 -4 38 11 56 15 18 25 18 32 0z"/>
<path d="M2593 1362 c-50 -35 -52 -39 -53 -83 l0 -47 35 35 c43 43 44 48 5 28
-27 -14 -30 -14 -30 0 0 8 3 14 8 13 4 -2 28 12 54 30 31 21 45 37 42 47 -4 8
-7 15 -8 15 0 -1 -24 -18 -53 -38z"/>
<path d="M243 1284 c-74 -40 -118 -73 -79 -58 9 3 16 3 16 0 0 -8 -72 -37 -78
-31 -3 3 -13 -7 -23 -21 -16 -25 -17 -25 -28 -8 -9 17 -10 18 -11 2 0 -10 -5
-18 -11 -18 -5 0 -8 -4 -5 -9 4 -5 2 -11 -3 -13 -7 -2 -21 -158 -14 -158 3 0
115 50 124 56 4 2 12 -2 18 -10 9 -11 -3 -21 -64 -51 -41 -20 -75 -41 -75 -45
0 -5 42 12 93 38 50 26 124 62 163 80 l72 33 -2 114 c0 63 -2 115 -3 115 -1 0
-9 -8 -19 -17 -17 -18 -54 -25 -54 -11 0 8 16 12 33 9 5 -1 6 3 2 9 -3 5 0 10
8 10 8 0 20 7 27 15 20 24 0 17 -87 -31z m51 -32 c12 -20 17 -131 7 -150 -12
-23 -82 -47 -112 -39 -11 3 -17 1 -13 -4 5 -9 -18 -13 -63 -11 -13 1 -23 -3
-23 -8 0 -6 -10 -10 -21 -10 -12 0 -28 -8 -35 -17 -11 -15 -12 -11 -10 33 3
55 10 74 29 74 7 0 25 14 40 32 23 27 26 29 16 8 -12 -24 -11 -25 8 -7 11 9
22 15 25 12 3 -3 16 7 30 23 21 25 25 27 38 13 13 -13 12 -14 -5 -7 -16 6 -17
5 -8 -5 16 -16 43 5 36 29 -5 22 49 53 61 34z m-70 -211 c3 -5 -2 -11 -12 -14
-9 -2 -25 -8 -35 -12 -13 -5 -16 -3 -11 8 3 9 12 13 20 10 8 -3 14 0 14 6 0
13 17 15 24 2z"/>
<path d="M2837 1258 c-2 -7 -5 -17 -5 -22 -1 -10 -90 -56 -108 -56 -7 0 -15
-6 -17 -12 -3 -8 -6 -6 -6 4 -1 11 -6 15 -16 12 -12 -5 -15 -25 -15 -96 0 -49
3 -88 8 -86 17 9 110 51 140 63 17 8 32 19 32 26 0 6 8 18 18 26 9 8 11 12 5
8 -15 -7 -17 18 -4 44 9 15 6 17 -18 16 -27 -2 -27 -1 -17 29 6 17 15 37 19
44 5 6 4 12 -1 12 -6 0 -12 -6 -15 -12z m-14 -122 c-7 -37 -21 -66 -31 -64 -4
1 -20 -4 -35 -10 -16 -7 -37 -12 -48 -12 -18 0 -19 5 -14 47 7 57 26 73 87 71
47 -1 47 -1 41 -32z"/>
<path d="M2729 1231 c-19 -10 -40 -16 -47 -13 -7 2 -12 -3 -12 -12 0 -12 8
-14 37 -10 39 5 68 25 62 42 -3 6 -18 4 -40 -7z"/>
<path d="M454 1174 c-4 -26 -2 -54 4 -67 9 -18 11 -9 11 46 1 37 -1 67 -3 67
-3 0 -8 -21 -12 -46z"/>
<path d="M2540 1177 c0 -25 2 -28 15 -17 8 7 15 19 15 27 0 8 5 11 12 7 6 -4
8 -3 4 4 -3 6 -15 10 -26 9 -15 -1 -20 -9 -20 -30z"/>
<path d="M2585 1143 c-5 -13 -9 -14 -12 -5 -4 10 -8 10 -19 1 -11 -9 -14 -60
-14 -267 l0 -255 23 20 c12 11 39 30 60 43 25 14 36 27 33 37 -3 8 -6 67 -6
130 0 64 -2 114 -4 112 -2 -2 -5 -49 -7 -104 -2 -55 -7 -109 -12 -120 -13 -25
-33 -45 -45 -45 -12 0 -25 144 -17 189 3 19 1 39 -6 47 -14 17 7 37 59 54 32
12 32 12 32 80 0 53 -3 69 -16 74 -9 4 -23 1 -32 -6 -13 -11 -14 -10 -8 10 9
26 1 30 -9 5z m29 -54 c-34 -36 -64 -55 -64 -39 0 9 76 70 88 70 3 0 -7 -14
-24 -31z m13 -59 c1 -11 -2 -18 -7 -15 -5 3 -11 1 -15 -5 -9 -14 -25 -12 -25
3 0 16 20 37 35 37 6 0 11 -9 12 -20z"/>
<path d="M2922 1108 c-42 -24 -50 -33 -41 -44 9 -11 20 -7 63 28 28 23 53 43
55 45 2 2 -2 3 -10 2 -8 0 -38 -14 -67 -31z"/>
<path d="M363 1093 c-9 -3 -13 -29 -13 -80 0 -73 1 -74 23 -67 41 12 77 34 77
47 0 9 2 9 9 -1 5 -8 8 5 9 33 l2 46 -45 -6 c-43 -5 -51 0 -46 28 0 4 0 7 -1
6 -2 0 -9 -3 -15 -6z m82 -65 c-1 -15 -8 -22 -18 -20 -9 1 -22 -6 -29 -18 -7
-11 -17 -20 -22 -20 -6 0 8 18 29 40 21 22 40 40 40 40 1 0 1 -10 0 -22z"/>
<path d="M2964 1070 c-12 -5 -28 -18 -36 -29 -8 -12 -18 -18 -23 -13 -5 4 -5
2 -2 -4 4 -6 -5 -22 -19 -35 -27 -26 -57 -79 -44 -79 5 0 12 9 15 20 4 11 11
18 16 15 5 -4 12 1 15 9 3 9 12 16 19 16 17 0 49 37 35 42 -6 2 -8 11 -4 21 3
10 12 16 19 13 7 -2 21 4 31 15 18 20 12 23 -22 9z"/>
<path d="M312 1034 c-12 -8 -22 -20 -22 -26 0 -6 -8 -17 -17 -25 -16 -13 -16
-13 7 -8 24 6 24 6 -3 -13 -16 -11 -29 -23 -30 -28 -1 -5 -7 -8 -14 -8 -6 1
-9 -4 -7 -10 3 -7 -7 -18 -21 -26 -14 -7 -25 -17 -25 -22 0 -11 14 -10 26 1 5
6 37 23 70 40 l61 30 0 56 c0 30 -1 55 -2 55 0 0 -11 -7 -23 -16z"/>
<path d="M2916 945 c-42 -33 -75 -51 -84 -47 -11 4 -14 1 -9 -11 4 -11 -5 -27
-24 -47 -17 -16 -28 -33 -26 -38 3 -4 -6 -13 -20 -19 -25 -12 -25 -12 -8 7 24
26 5 26 -23 0 -25 -24 -24 -29 -27 80 -3 98 -4 107 -14 92 -4 -7 -9 -67 -10
-133 l-2 -120 63 42 c61 41 99 71 68 54 -13 -8 -13 -6 -2 7 7 9 25 19 39 23
19 4 23 9 14 18 -13 13 -15 28 -2 25 8 -3 136 96 147 113 12 20 -15 5 -80 -46z"/>
<path d="M451 942 c-5 -10 -8 -31 -6 -48 7 -55 7 -303 0 -313 -3 -6 1 -11 9
-11 14 0 16 25 16 195 0 107 -2 195 -5 195 -2 0 -9 -8 -14 -18z"/>
<path d="M296 864 c-18 -13 -18 -15 -3 -31 19 -22 25 -47 12 -48 -5 -1 -18 -5
-27 -9 -22 -10 -24 -31 -3 -22 8 3 22 9 30 12 23 10 18 -26 -10 -67 -22 -33
-23 -38 -9 -55 14 -18 15 -18 13 1 -2 36 1 44 15 39 19 -7 22 126 4 138 -10 6
-10 10 2 18 13 9 13 10 0 10 -12 0 -12 2 -1 9 7 5 9 11 4 14 -4 3 -17 -1 -27
-9z"/>
<path d="M2738 557 c-57 -18 -68 -26 -68 -44 0 -16 4 -21 15 -17 8 4 15 12 15
20 0 8 6 14 13 14 6 1 37 12 67 25 68 30 47 31 -42 2z"/>
<path d="M160 554 c-14 -8 -21 -14 -16 -14 5 0 3 -7 -5 -16 -17 -21 -19 -63
-2 -57 7 3 13 13 13 24 0 10 12 29 26 42 30 28 21 40 -16 21z"/>
<path d="M403 525 l-53 -24 0 -126 0 -125 130 0 c80 0 130 4 130 10 0 6 8 10
18 10 15 0 15 -2 2 -11 -17 -12 122 -5 155 7 13 5 16 4 11 -4 -4 -7 -1 -12 8
-12 20 0 16 23 -4 32 -12 5 -12 7 3 7 21 1 23 21 2 21 -9 0 -18 -7 -21 -15 -4
-9 -14 -14 -23 -11 -49 13 -93 17 -86 6 3 -5 11 -8 16 -5 5 4 9 1 9 -4 0 -6
-9 -11 -20 -11 -11 0 -20 3 -20 8 0 4 -26 8 -57 9 -45 1 -51 -1 -28 -7 20 -5
-2 -8 -70 -9 -55 0 -106 3 -114 8 -15 10 -18 64 -7 146 3 25 1 42 -7 47 -7 4
2 8 21 8 31 0 32 -1 32 -41 0 -22 4 -49 10 -59 14 -27 70 -42 152 -40 40 1
216 1 391 1 268 -1 317 -3 317 -15 0 -8 -12 -24 -26 -35 -25 -19 -40 -21 -188
-21 -89 0 -175 4 -191 8 -23 7 -34 5 -49 -10 -19 -18 -13 -18 226 -18 225 0
246 2 261 18 21 23 21 32 2 32 -8 0 -15 -4 -15 -10 0 -5 -7 -7 -16 -3 -11 4
-12 9 -4 17 14 14 42 14 53 1 6 -7 10 -6 13 2 3 6 14 21 25 34 11 12 16 26 11
31 -5 5 -216 7 -470 6 l-462 -3 0 88 c0 48 -3 87 -7 87 -5 0 -32 -11 -60 -25z"/>
<path d="M2753 510 c-59 -28 -83 -44 -83 -57 0 -13 2 -15 9 -5 4 7 46 33 92
57 103 55 93 57 -18 5z"/>
<path d="M2553 523 c-9 -3 -13 -28 -13 -74 l0 -69 -427 -2 c-236 0 -456 0
-490 1 -34 1 -64 -3 -68 -9 -3 -5 -1 -10 5 -10 6 0 8 -4 5 -10 -10 -16 13 -12
42 7 26 17 27 17 20 -1 -6 -15 -5 -17 6 -8 8 7 16 9 19 6 4 -3 206 -5 450 -5
243 1 449 1 456 1 7 0 10 5 7 10 -3 6 -3 16 2 23 4 6 8 32 8 56 0 43 1 44 39
55 22 6 41 17 44 24 4 14 0 14 -50 3 -22 -5 -36 -5 -32 0 6 10 -3 11 -23 2z"/>
<path d="M320 485 c-7 -8 -16 -12 -21 -9 -5 3 -9 1 -9 -5 0 -5 -9 -13 -20 -16
-11 -4 -18 -11 -15 -16 3 -5 -1 -6 -9 -3 -9 3 -16 1 -16 -5 0 -6 -6 -11 -14
-11 -9 0 -21 -21 -30 -54 -20 -67 -20 -96 -1 -96 13 0 20 -22 27 -90 2 -14 9
-25 18 -25 8 0 21 -4 28 -9 18 -11 90 1 202 34 52 15 120 32 150 36 47 8 31
10 -110 14 l-165 5 0 133 c0 72 -1 132 -1 132 -1 0 -7 -7 -14 -15z m-10 -152
c1 -96 12 -123 51 -123 l24 0 -26 -14 c-41 -21 -73 -26 -91 -12 -22 17 -51 92
-52 137 0 46 37 99 70 99 24 0 24 -2 24 -87z"/>
<path d="M2633 453 c-7 -2 -13 -9 -13 -15 0 -6 -8 -17 -17 -25 -13 -10 -9 -10
15 2 17 8 32 22 32 30 0 8 -1 15 -2 14 -2 0 -9 -3 -15 -6z"/>
<path d="M2631 394 c-7 -8 -20 -13 -28 -10 -8 3 -11 1 -8 -4 3 -6 1 -10 -6
-10 -7 0 -10 -2 -7 -5 9 -9 79 25 73 35 -8 12 -7 12 -24 -6z"/>
<path d="M1439 325 c-30 -30 -62 -55 -71 -55 -9 0 -19 -4 -23 -9 -3 -6 14 -8
39 -7 44 2 76 19 76 38 0 12 59 68 71 68 5 0 9 5 9 10 0 6 -11 10 -24 10 -15
0 -42 -19 -77 -55z"/>
<path d="M2550 329 c-13 -6 -33 -18 -43 -27 -11 -9 -21 -16 -23 -14 -2 2 -21
-2 -42 -7 -47 -13 -925 -13 -933 0 -3 5 -14 0 -24 -11 l-18 -20 499 0 c411 0
503 3 524 14 14 8 44 24 68 35 24 11 41 25 37 31 -7 12 -12 12 -45 -1z"/>
<path d="M747 234 c-3 -3 -11 -7 -19 -8 -7 -1 -33 -9 -57 -16 -40 -13 -42 -15
-20 -20 14 -4 38 1 59 11 19 9 42 19 50 21 9 3 10 7 3 11 -5 4 -13 4 -16 1z"/>
<path d="M1347 234 c-3 -3 -113 -5 -244 -5 -235 2 -240 1 -268 -21 -16 -12
-26 -17 -21 -10 4 6 3 12 -3 12 -5 0 -13 -5 -16 -10 -4 -6 -11 -8 -16 -5 -5 4
-6 -2 -2 -12 3 -10 3 -15 -2 -11 -7 6 -105 -37 -105 -46 0 -9 68 14 115 38 28
14 58 26 67 26 9 0 19 6 22 13 5 10 7 10 12 0 3 -7 12 -13 20 -13 9 0 13 -4 9
-9 -3 -5 -1 -12 4 -15 5 -3 11 2 13 12 3 10 15 18 28 19 13 1 26 6 29 10 3 4
26 9 51 10 44 2 44 1 13 -8 -22 -6 -33 -16 -33 -28 0 -10 -18 -34 -41 -54 -39
-36 -43 -51 -6 -23 10 8 26 12 36 9 9 -2 23 2 30 11 10 12 9 14 -11 9 -16 -4
-20 -3 -13 5 6 6 25 13 43 17 29 5 32 3 32 -20 0 -28 20 -33 43 -10 13 13 17
13 27 0 7 -8 17 -12 23 -8 6 4 3 9 -9 14 -13 5 -7 8 21 8 31 0 36 -2 20 -9
-18 -8 -15 -10 13 -10 10 0 11 39 0 46 -5 3 -15 1 -23 -6 -9 -8 -15 -8 -20 0
-5 8 -10 8 -20 0 -10 -9 -16 -7 -24 9 -16 29 -14 33 9 21 20 -11 60 -5 60 8 0
4 15 8 33 8 50 2 99 12 111 24 5 5 8 10 5 10 -3 0 -8 -3 -12 -6z m-212 -84 c0
-8 -8 -16 -17 -18 -13 -2 -18 3 -18 18 0 15 5 20 18 18 9 -2 17 -10 17 -18z"/>
<path d="M1480 220 c12 -8 13 -11 1 -19 -9 -6 -10 -11 -2 -15 6 -4 11 -22 11
-41 0 -28 3 -32 20 -28 12 3 20 14 20 27 1 19 1 20 11 3 6 -10 8 -25 5 -33 -3
-8 -1 -14 3 -14 5 0 14 14 20 31 15 42 13 48 -4 25 -14 -18 -15 -19 -15 -2 0
11 -5 16 -13 13 -24 -9 -44 10 -31 30 11 18 103 20 722 14 28 -1 52 -5 52 -9
0 -9 -128 -50 -275 -88 -145 -38 -261 -72 -245 -73 27 -1 193 30 270 51 176
47 316 91 330 103 8 7 21 10 28 8 6 -3 12 0 12 6 0 5 12 12 28 14 15 2 -196 5
-468 5 -328 1 -490 -2 -480 -8z"/>
<path d="M1610 170 c0 -11 -6 -20 -12 -20 -9 0 -10 -3 -2 -8 6 -4 14 -14 17
-22 4 -12 6 -11 6 3 1 9 8 17 16 17 21 0 31 30 14 41 -23 15 -39 10 -39 -11z"/>
<path d="M1424 163 c-13 -13 -19 -14 -22 -5 -5 16 -32 16 -32 0 0 -9 -3 -9
-12 0 -21 21 -38 14 -37 -15 1 -17 3 -21 6 -10 6 21 23 23 23 1 0 -8 4 -13 9
-9 5 3 12 1 16 -5 4 -6 11 -7 17 -4 6 4 5 10 -3 15 -11 7 -11 9 2 9 9 0 22 -6
29 -14 17 -22 40 -8 40 25 0 33 -11 37 -36 12z"/>
<path d="M1748 172 c-16 -2 -28 -8 -28 -13 0 -5 -9 -4 -20 3 -22 14 -25 12
-34 -19 -5 -14 -3 -23 3 -23 6 0 11 7 11 15 0 22 14 18 25 -7 14 -31 47 -30
56 2 4 16 7 19 8 8 1 -18 31 -26 31 -9 0 5 3 16 6 25 3 9 1 16 -5 16 -6 0 -12
-10 -12 -22 -1 -22 -2 -22 -8 2 -5 20 -11 24 -33 22z"/>
<path d="M873 130 c-45 -21 -84 -36 -87 -32 -3 3 -6 -2 -6 -11 0 -21 8 -21 53
-2 19 8 37 11 41 8 4 -4 9 3 13 15 3 12 9 19 14 16 5 -3 7 -9 4 -14 -6 -9 52
17 73 33 11 8 11 12 0 18 -17 11 -11 13 -105 -31z"/>
<path d="M1277 163 c-4 -3 -7 -19 -7 -35 0 -43 34 -34 38 10 3 31 -13 44 -31
25z"/>
<path d="M1827 164 c-16 -17 -7 -44 16 -43 21 0 21 1 2 9 -18 8 -18 9 -2 9 10
1 17 6 15 13 -5 14 -22 21 -31 12z"/>
<path d="M1877 164 c-10 -11 -8 -42 3 -49 6 -3 15 -3 22 1 8 5 6 10 -8 15 -18
7 -18 8 -1 8 10 1 17 6 15 13 -5 14 -22 21 -31 12z"/>
<path d="M1630 90 c-7 -4 -10 -15 -7 -24 8 -20 37 -10 37 13 0 14 2 14 11 1 8
-12 10 -12 7 -1 -5 17 -30 22 -48 11z"/>
<path d="M1770 80 c-105 -25 -146 -40 -106 -40 20 0 179 39 185 46 7 6 -40 3
-79 -6z"/>
<path d="M735 71 c-16 -3 -29 -10 -27 -15 2 -5 -14 -17 -35 -27 -21 -9 -31
-18 -23 -18 9 -1 33 8 54 19 22 10 42 17 46 15 4 -3 10 4 13 15 3 11 4 19 4
19 -1 -1 -15 -4 -32 -8z"/>
</g>
</svg>
