<?xml version="1.0" standalone="no"?>
<!DOCTYPE svg PUBLIC "-//W3C//DTD SVG 20010904//EN"
 "http://www.w3.org/TR/2001/REC-SVG-20010904/DTD/svg10.dtd">
<svg version="1.0" xmlns="http://www.w3.org/2000/svg"
 width="220.000000pt" height="215.000000pt" viewBox="0 0 220.000000 215.000000"
 preserveAspectRatio="xMidYMid meet">
<metadata>
Created by potrace 1.10, written by Peter Selinger 2001-2011
</metadata>
<g transform="translate(0.000000,215.000000) scale(0.100000,-0.100000)"
fill="#000000" stroke="none">
<path d="M1295 1929 c-121 -37 -243 -53 -420 -53 -195 1 -412 27 -501 61 -12
4 -14 -49 -14 -382 l0 -387 47 6 c27 4 65 9 86 12 l37 6 0 -39 c1 -51 37 -156
80 -227 47 -78 144 -167 225 -207 36 -18 64 -37 61 -43 -2 -6 -20 -51 -40
-100 -34 -85 -34 -88 -13 -82 123 35 270 67 351 77 166 20 465 -3 585 -46 24
-8 47 -15 52 -15 5 0 9 172 9 386 l0 387 -32 -7 c-18 -4 -51 -9 -74 -12 l-40
-6 -12 63 c-6 35 -30 101 -52 148 -50 104 -142 199 -242 251 -38 19 -68 37
-68 40 0 4 13 47 29 98 18 57 24 92 17 91 -6 0 -38 -9 -71 -20z m35 -30 c0 -5
-4 -8 -9 -5 -4 3 -7 -16 -5 -42 2 -31 0 -42 -5 -33 -7 11 -10 4 -13 -25 -2
-28 3 -47 19 -70 24 -33 43 -110 43 -177 0 -38 -1 -39 -29 -34 -16 3 -42 12
-59 19 l-30 13 34 88 c31 81 36 116 15 102 -5 -2 -23 -44 -41 -92 -18 -48 -34
-89 -35 -91 -4 -5 -105 41 -105 48 0 17 115 120 146 130 19 7 32 15 29 19 -5
9 -85 22 -127 21 -15 0 -29 4 -33 9 -3 6 -38 8 -78 6 -58 -3 -63 -2 -27 4 36
6 39 8 15 10 -16 1 -40 4 -52 7 -18 5 -23 2 -23 -13 0 -17 -51 -48 -72 -44 -5
0 -8 -4 -8 -10 0 -5 -5 -7 -10 -4 -6 3 -25 -3 -43 -15 -27 -19 -29 -19 -10 -2
19 17 20 21 7 26 -8 3 -13 2 -10 -2 3 -4 -22 -32 -55 -62 -57 -52 -73 -85 -46
-96 8 -3 13 -18 12 -34 -2 -26 0 -28 19 -18 20 11 20 10 6 -7 -14 -17 -13 -18
4 -12 20 8 60 -19 51 -34 -3 -4 0 -11 6 -15 8 -4 9 -3 5 4 -18 29 18 8 58 -34
26 -26 49 -43 56 -39 19 12 63 -4 56 -20 -3 -9 1 -15 10 -15 9 0 28 -6 42 -14
53 -27 87 -39 107 -37 17 2 18 0 5 -9 -12 -9 -8 -11 17 -8 18 3 30 1 28 -3 -6
-9 84 -32 116 -30 15 1 33 -5 42 -13 18 -19 42 -22 31 -4 -5 8 -2 9 10 5 10
-4 24 -7 32 -7 9 0 14 -7 12 -17 -2 -11 4 -18 17 -20 20 -3 20 -3 0 7 -18 9
-17 10 8 7 15 -3 27 0 27 4 0 5 -8 10 -17 10 -10 1 -4 5 12 8 21 5 34 3 42 -6
8 -11 23 -13 57 -8 40 6 45 5 40 -9 -3 -9 -2 -16 4 -16 5 0 13 10 16 23 7 21
7 21 16 2 8 -19 9 -19 9 3 1 21 21 33 21 11 0 -6 9 -8 22 -3 20 6 21 5 9 -10
-12 -15 -11 -15 22 -1 20 8 39 15 42 15 3 0 5 -154 5 -341 l0 -341 -37 8 c-21
4 -48 8 -60 8 -11 1 -19 4 -16 9 4 7 -5 8 -82 12 -16 1 -50 3 -75 5 l-45 3 40
8 c24 4 -6 5 -75 3 -63 -3 -168 -6 -233 -9 -65 -2 -122 -6 -125 -10 -4 -4 11
-5 33 -2 28 5 34 4 20 -3 -11 -5 -38 -9 -59 -9 -44 -1 -161 -27 -188 -41 -11
-6 -19 -6 -23 0 -4 6 -1 9 5 8 12 -3 40 64 40 95 0 10 4 15 10 12 5 -3 12 6
16 21 4 17 9 22 14 14 4 -7 14 -10 21 -8 8 3 20 -1 27 -9 7 -7 21 -13 30 -13
15 0 15 2 2 10 -11 7 -6 10 20 9 30 0 32 -2 15 -10 -17 -8 -15 -9 10 -5 19 3
34 -2 42 -12 12 -16 13 -16 7 0 -4 13 -1 15 16 11 16 -4 18 -8 8 -14 -10 -7
-9 -9 5 -9 9 0 17 4 17 9 0 13 37 20 48 9 6 -6 16 -6 28 0 49 25 120 56 129
57 20 0 55 26 50 35 -3 6 1 7 10 4 20 -8 95 66 95 95 0 11 -4 21 -10 21 -5 0
-7 6 -4 14 3 8 0 17 -7 22 -8 5 -10 3 -4 -6 5 -9 4 -11 -3 -6 -9 5 -9 13 -2
27 12 22 13 21 -22 23 -15 1 -24 -2 -21 -8 3 -5 1 -6 -5 -2 -7 4 -12 17 -13
29 0 21 -1 21 -8 3 -7 -19 -8 -18 -14 4 -4 15 -1 27 6 32 8 5 7 8 -5 8 -9 0
-18 -6 -20 -12 -4 -10 -9 -8 -21 3 -9 9 -13 20 -9 24 4 4 2 5 -3 4 -6 -2 -31
7 -57 20 -26 13 -52 20 -58 16 -5 -3 -14 4 -19 17 -6 13 -10 17 -10 10 -1 -7
-6 -10 -11 -7 -6 4 -8 10 -5 15 3 4 -12 11 -33 16 -51 11 -54 12 -79 13 -12 0
-28 7 -35 14 -14 15 -20 17 -44 17 -8 0 -12 5 -9 10 3 6 2 10 -4 10 -5 0 -18
3 -28 6 -15 5 -15 4 -3 -5 13 -9 13 -11 -2 -11 -10 0 -18 4 -18 8 0 4 -11 9
-25 10 -14 1 -25 -3 -25 -8 0 -6 -5 -10 -11 -10 -5 0 -7 5 -4 10 4 6 3 10 -2
9 -4 -1 -20 3 -35 9 -26 11 -103 18 -123 11 -5 -2 -33 3 -62 10 -38 9 -61 10
-85 2 -18 -5 -66 -10 -106 -9 l-72 1 0 338 1 339 45 0 c25 0 43 -4 40 -9 -3
-5 18 -12 46 -15 39 -5 48 -10 38 -17 -10 -7 -5 -7 15 -2 17 4 46 7 65 6 234
-14 322 -14 405 1 50 8 94 11 98 7 5 -5 26 0 47 10 54 26 74 24 90 -8 9 -20
14 -24 18 -13 3 7 0 16 -6 18 -16 5 -15 29 1 35 20 9 27 8 27 -4z m-210 -134
c0 -8 -7 -15 -16 -15 -9 0 -47 -17 -85 -37 l-69 -37 -25 24 c-32 30 -25 35 90
55 49 8 91 17 93 20 9 8 12 6 12 -10z m75 -37 c-16 -12 -51 -44 -76 -71 l-46
-49 -48 24 -48 25 49 28 c51 30 145 64 179 64 17 0 15 -3 -10 -21z m-312 -131
c-29 -32 -53 -62 -53 -68 0 -21 -27 -6 -68 36 l-44 46 28 22 c15 12 49 36 77
52 l50 30 31 -30 31 -30 -52 -58z m523 61 c47 -57 102 -193 73 -184 -8 3 -32
10 -54 15 l-40 11 -1 73 c-1 40 -7 83 -13 95 -18 33 3 26 35 -10z m177 -157
l18 -31 -40 0 c-39 0 -41 1 -51 43 -7 23 -23 62 -36 86 -13 24 -24 46 -24 50
1 10 114 -115 133 -148z m-524 83 c2 -2 -10 -25 -27 -51 -16 -26 -38 -65 -48
-85 l-19 -36 -62 41 c-71 47 -71 44 8 131 l51 56 46 -27 c26 -15 49 -28 51
-29z m90 -36 l57 -22 -35 -93 c-39 -105 -30 -101 -133 -56 -45 20 -55 28 -45
38 7 6 30 44 52 83 22 40 42 72 44 72 2 0 29 -10 60 -22z m149 -55 l54 -17 -6
-41 c-12 -75 -31 -145 -39 -145 -8 0 -140 32 -144 35 -1 0 10 35 26 76 15 40
31 82 34 92 8 21 8 21 75 0z m142 -37 l55 -12 3 -93 3 -93 -63 7 c-88 9 -101
14 -93 33 6 14 35 155 35 168 0 2 1 4 3 4 1 -1 27 -7 57 -14z m201 -92 c28
-103 27 -112 -18 -109 -21 1 -52 3 -69 4 l-31 1 1 88 1 87 40 5 c22 3 44 3 49
-1 4 -4 17 -38 27 -75z m166 -621 c-1 -93 -3 -17 -3 167 0 184 2 260 3 168 2
-93 2 -243 0 -335z m-1117 352 l0 -95 -44 0 c-41 0 -45 2 -59 38 -9 21 -18 56
-22 78 -4 21 -9 47 -12 57 -4 15 4 17 66 17 l71 0 0 -95z m178 70 c2 -1 -5
-44 -15 -94 l-17 -92 -41 6 c-79 13 -75 7 -75 109 l0 92 73 -9 c39 -5 73 -10
75 -12z m117 -24 c39 -11 69 -23 68 -28 -1 -4 -17 -48 -35 -96 -29 -77 -35
-87 -53 -82 -11 4 -39 12 -62 17 -35 9 -42 15 -38 32 25 127 37 176 43 176 4
0 39 -9 77 -19z m173 -57 c37 -15 68 -28 70 -29 5 -4 -97 -180 -105 -178 -7 1
-103 35 -111 39 -1 0 9 32 23 70 38 103 47 124 52 124 3 0 35 -12 71 -26z
m161 -79 c34 -20 61 -40 61 -45 0 -4 -19 -32 -42 -61 -24 -28 -51 -61 -60 -73
l-17 -21 -55 27 -56 28 36 56 c20 31 42 71 50 90 8 19 16 34 19 34 2 0 31 -16
64 -35z m-615 -66 c3 -20 20 -63 37 -95 l30 -59 -41 40 c-48 47 -110 128 -110
144 0 7 15 11 39 10 37 -3 39 -5 45 -40z m90 15 l36 -6 0 -62 c0 -33 4 -77 10
-96 6 -22 6 -37 0 -42 -5 -5 -8 -5 -6 -2 3 3 -11 26 -30 51 -37 49 -58 91 -69
143 -6 27 -5 32 8 27 9 -3 32 -9 51 -13z m122 -30 c27 -9 51 -18 53 -20 6 -5
-61 -184 -69 -184 -18 0 -40 84 -40 150 0 39 1 70 3 70 2 0 26 -7 53 -16z
m551 -29 l48 -44 -40 -35 c-22 -19 -61 -46 -87 -61 l-46 -25 -30 30 -31 30 35
38 c20 20 47 54 61 75 14 20 29 37 33 37 5 0 30 -20 57 -45z m-406 -26 l49
-21 -41 -49 c-41 -50 -95 -89 -122 -89 -12 0 -10 13 13 73 15 39 30 80 33 90
8 21 8 21 68 -4z m131 -60 c40 -21 41 -22 22 -36 -52 -40 -198 -91 -209 -73
-3 5 4 11 15 15 11 3 41 31 67 61 26 30 51 54 55 54 5 0 27 -10 50 -21z m95
-61 c13 -12 23 -25 23 -29 0 -11 -132 -39 -182 -39 l-43 0 57 24 c31 13 69 33
85 44 35 26 32 26 60 0z"/>
<path d="M710 425 c-24 -14 -24 -14 -3 -15 12 0 29 -10 38 -22 14 -21 14 -23
0 -26 -17 -4 -21 -22 -4 -22 6 0 9 -16 7 -37 -3 -33 -6 -38 -32 -41 -20 -3
-27 0 -23 10 2 7 10 12 16 10 22 -4 10 19 -14 28 -22 8 -24 13 -15 30 12 23
25 27 17 5 -7 -17 9 -30 18 -15 8 13 -13 40 -31 40 -24 0 -36 -37 -18 -54 8
-9 12 -21 9 -27 -10 -15 25 -49 51 -49 13 0 26 -5 29 -10 14 -23 20 -6 17 50
l-4 60 54 0 54 0 1 -35 c1 -30 -3 -35 -23 -35 -30 0 -42 20 -15 27 12 3 21 9
21 14 0 15 -40 10 -46 -5 -8 -21 14 -56 36 -56 10 0 26 -10 34 -22 15 -21 16
-19 16 45 0 53 3 67 15 67 8 0 15 5 15 10 0 6 -33 10 -78 10 -75 0 -79 1 -101
30 -12 17 -19 35 -16 40 8 13 5 12 -25 -5z"/>
<path d="M270 301 c0 -57 3 -71 15 -71 12 0 15 13 12 67 -1 41 -7 68 -15 71
-9 3 -12 -16 -12 -67z"/>
<path d="M318 300 c2 -38 8 -70 13 -70 13 0 7 132 -6 137 -6 2 -9 -23 -7 -67z"/>
<path d="M1860 300 c0 -40 4 -70 10 -70 6 0 10 30 10 70 0 40 -4 70 -10 70 -6
0 -10 -30 -10 -70z"/>
<path d="M1903 301 c0 -51 3 -71 14 -75 11 -5 13 8 11 66 -4 94 -24 101 -25 9z"/>
<path d="M360 350 c0 -5 18 -10 40 -10 39 0 40 -1 40 -35 0 -31 -3 -35 -25
-35 -16 0 -25 6 -25 15 0 8 9 15 21 15 11 0 17 5 14 10 -9 15 -45 12 -51 -4
-9 -23 15 -56 40 -56 13 0 26 -7 30 -15 13 -34 22 -11 18 45 l-4 60 36 0 c31
0 36 -3 36 -24 0 -20 -4 -23 -22 -19 -18 3 -10 -8 30 -46 29 -28 62 -51 74
-51 11 0 18 -5 16 -12 -7 -21 -38 -21 -60 -1 -16 14 -20 14 -16 3 8 -25 54
-43 78 -30 24 13 25 23 5 44 -10 10 -15 35 -15 75 0 48 3 61 15 61 8 0 15 5
15 10 0 6 -55 10 -145 10 -90 0 -145 -4 -145 -10z m240 -36 c0 -20 -4 -25 -21
-22 -12 2 -26 13 -30 26 -7 20 -5 22 21 22 26 0 30 -4 30 -26z m3 -71 c5 -29
-7 -29 -44 -2 -23 16 -27 24 -19 34 15 18 57 -3 63 -32z"/>
<path d="M1010 350 c0 -5 20 -10 45 -10 43 0 44 -1 42 -30 -2 -30 -26 -48 -47
-35 -18 11 -11 25 12 25 16 0 19 3 11 11 -11 11 -53 4 -53 -10 0 -20 29 -43
54 -43 15 0 24 -3 22 -6 -3 -3 -1 -11 5 -19 9 -10 8 -13 -5 -13 -9 0 -16 -4
-16 -10 0 -5 11 -10 25 -10 30 0 33 -16 5 -25 -11 -3 -31 1 -47 12 -22 14 -25
14 -16 2 7 -9 11 -18 8 -20 -2 -3 4 -5 13 -6 9 -1 22 -2 27 -3 31 -7 45 1 45
25 0 14 -4 25 -10 25 -5 0 -10 18 -10 40 0 43 21 63 43 41 9 -10 8 -16 -7 -27
-22 -16 -17 -28 8 -18 32 12 12 64 -26 64 -10 0 -18 7 -18 15 0 12 14 15 70
15 54 0 70 -3 70 -14 0 -9 -12 -16 -32 -18 -20 -2 -34 -9 -36 -18 -4 -22 49
-89 71 -90 10 0 17 -6 15 -12 -7 -19 -43 -21 -58 -3 -7 8 -17 15 -22 15 -6 0
-5 -7 2 -16 35 -41 90 -41 90 1 0 13 -6 26 -12 29 -10 5 -10 7 0 12 13 6 17
34 4 34 -4 0 -13 -5 -19 -11 -16 -16 -55 -1 -51 19 2 11 15 18 36 20 26 3 32
7 32 28 0 20 5 24 30 24 26 0 30 -4 30 -26 0 -14 -4 -23 -10 -19 -16 10 -11
-21 6 -36 13 -10 17 -10 24 1 13 21 37 20 56 -1 10 -11 25 -17 34 -14 11 3 21
-3 28 -17 9 -19 11 -12 11 45 l1 67 54 0 53 0 -6 -32 c-5 -23 -12 -33 -26 -33
-10 0 -20 6 -22 13 -3 7 4 12 18 12 17 0 20 3 12 11 -14 14 -53 2 -53 -16 0
-18 46 -49 60 -40 5 3 10 2 10 -2 0 -5 7 -18 15 -29 15 -18 16 -16 13 23 -4
44 8 58 37 47 20 -8 19 -21 -2 -33 -21 -12 -13 -24 11 -15 35 13 11 64 -31 64
-14 0 -23 6 -23 15 0 12 13 15 55 15 52 0 55 -1 55 -26 0 -14 -4 -23 -9 -19
-5 3 -12 1 -15 -4 -8 -13 34 -48 42 -35 4 6 15 13 25 17 13 5 17 1 17 -17 0
-13 7 -26 15 -30 12 -4 15 5 15 54 0 48 3 60 16 60 8 0 12 5 9 10 -4 6 -153
10 -416 10 -266 0 -409 -3 -409 -10z m460 -46 c0 -24 -4 -34 -12 -31 -7 2 -12
14 -11 26 3 25 -27 29 -51 6 -22 -22 -36 -18 -36 10 0 24 3 25 55 25 l55 0 0
-36z m310 11 c0 -18 -5 -25 -20 -25 -15 0 -20 7 -20 25 0 18 5 25 20 25 15 0
20 -7 20 -25z"/>
<path d="M1780 201 c0 -8 16 -16 75 -39 6 -2 -3 8 -18 22 -28 26 -57 34 -57
17z"/>
</g>
</svg>
